<?xml version="1.0" standalone="no"?>
<!DOCTYPE svg PUBLIC "-//W3C//DTD SVG 20010904//EN"
 "http://www.w3.org/TR/2001/REC-SVG-20010904/DTD/svg10.dtd">
<svg version="1.0" xmlns="http://www.w3.org/2000/svg"
 width="1536.000000pt" height="1024.000000pt" viewBox="0 0 1536.000000 1024.000000"
 preserveAspectRatio="xMidYMid meet">

<g transform="translate(0.000000,1024.000000) scale(0.100000,-0.100000)"
fill="#000000" stroke="none">
<path d="M7143 6014 c-65 -32 -80 -132 -26 -174 81 -64 202 -32 219 57 18 98
-93 166 -193 117z"/>
<path d="M6710 5485 l0 -465 105 0 105 0 0 465 0 465 -105 0 -105 0 0 -465z"/>
<path d="M9048 5913 c7 -3 16 -2 19 1 4 3 -2 6 -13 5 -11 0 -14 -3 -6 -6z"/>
<path d="M8918 5903 c7 -3 16 -2 19 1 4 3 -2 6 -13 5 -11 0 -14 -3 -6 -6z"/>
<path d="M4440 5653 c-63 -137 -154 -331 -202 -431 -48 -101 -88 -188 -88
-193 0 -5 49 -9 108 -9 l109 0 47 100 47 100 201 -2 201 -3 43 -95 43 -95 111
-3 c107 -3 111 -2 105 17 -3 11 -80 176 -172 368 -91 191 -180 381 -199 421
l-33 72 -103 0 -103 0 -115 -247z m304 -150 c30 -67 51 -124 48 -127 -3 -3
-65 -6 -138 -6 l-133 0 60 136 c33 75 64 145 71 157 11 21 11 21 24 -8 7 -17
38 -85 68 -152z"/>
<path d="M9188 5893 c7 -3 16 -2 19 1 4 3 -2 6 -13 5 -11 0 -14 -3 -6 -6z"/>
<path d="M9340 5836 c0 -2 8 -10 18 -17 15 -13 16 -12 3 4 -13 16 -21 21 -21
13z"/>
<path d="M9013 5813 c15 -2 39 -2 55 0 15 2 2 4 -28 4 -30 0 -43 -2 -27 -4z"/>
<path d="M8938 5803 c7 -3 16 -2 19 1 4 3 -2 6 -13 5 -11 0 -14 -3 -6 -6z"/>
<path d="M9128 5803 c7 -3 16 -2 19 1 4 3 -2 6 -13 5 -11 0 -14 -3 -6 -6z"/>
<path d="M9400 5786 c0 -2 8 -10 18 -17 15 -13 16 -12 3 4 -13 16 -21 21 -21
13z"/>
<path d="M8769 5713 l-24 -28 28 24 c15 14 27 26 27 28 0 8 -8 1 -31 -24z"/>
<path d="M9280 5736 c0 -2 8 -10 18 -17 15 -13 16 -12 3 4 -13 16 -21 21 -21
13z"/>
<path d="M9440 5736 c0 -2 8 -10 18 -17 15 -13 16 -12 3 4 -13 16 -21 21 -21
13z"/>
<path d="M6011 5695 c-30 -9 -69 -25 -88 -36 -37 -23 -37 -40 -1 -112 21 -42
18 -41 98 -12 63 24 194 25 240 2 37 -18 70 -62 70 -94 0 -17 -11 -18 -147
-18 -159 0 -203 -9 -261 -52 -43 -33 -63 -64 -73 -119 -19 -100 37 -194 136
-228 72 -24 217 -22 275 5 25 11 55 30 67 41 24 22 28 19 35 -27 3 -18 12 -20
93 -23 l90 -3 -3 213 c-1 117 -7 236 -13 265 -16 82 -59 137 -137 175 -63 31
-72 33 -196 35 -93 2 -147 -2 -185 -12z m321 -425 c-5 -50 -27 -79 -79 -102
-34 -15 -60 -19 -99 -16 -71 6 -104 29 -104 72 0 64 49 85 190 83 l95 -2 -3
-35z"/>
<path d="M7601 5694 c-78 -21 -123 -51 -115 -76 13 -41 45 -108 52 -108 4 0
30 8 57 19 154 58 301 23 321 -76 l6 -31 -112 6 c-205 9 -307 -26 -355 -122
-60 -121 -3 -243 131 -282 41 -12 82 -15 148 -12 93 4 138 19 183 60 l22 20 6
-36 7 -36 90 0 90 0 -4 238 c-3 224 -4 240 -27 290 -51 113 -155 162 -340 161
-59 0 -130 -7 -160 -15z m319 -422 c0 -48 -22 -79 -74 -103 -70 -32 -184 -20
-206 21 -15 29 -12 65 8 83 31 28 65 36 170 36 l102 1 0 -38z"/>
<path d="M10018 5703 c7 -3 16 -2 19 1 4 3 -2 6 -13 5 -11 0 -14 -3 -6 -6z"/>
<path d="M10788 5703 c7 -3 16 -2 19 1 4 3 -2 6 -13 5 -11 0 -14 -3 -6 -6z"/>
<path d="M5053 5688 c3 -7 42 -96 88 -198 45 -102 110 -248 144 -325 l62 -140
99 -3 100 -3 31 73 c18 40 82 188 143 328 61 140 114 261 117 268 4 10 -18 12
-103 10 l-108 -3 -82 -200 c-45 -110 -86 -206 -91 -213 -5 -8 -39 63 -97 203
l-89 215 -109 0 c-84 0 -109 -3 -105 -12z"/>
<path d="M7100 5360 l0 -340 105 0 105 0 0 340 0 340 -105 0 -105 0 0 -340z"/>
<path d="M9690 5360 l0 -340 63 2 62 2 -57 3 -58 4 0 329 0 329 58 4 57 3 -62
2 -63 2 0 -340z"/>
<path d="M9849 5633 c-13 -16 -12 -17 4 -4 9 7 17 15 17 17 0 8 -8 3 -21 -13z"/>
<path d="M11070 5647 c0 -2 15 -16 33 -33 l32 -29 -29 33 c-28 30 -36 37 -36
29z"/>
<path d="M10594 5608 l-29 -33 33 29 c30 28 37 36 29 36 -2 0 -16 -15 -33 -32z"/>
<path d="M10003 5603 c15 -2 37 -2 50 0 12 2 0 4 -28 4 -27 0 -38 -2 -22 -4z"/>
<path d="M10808 5603 c6 -2 18 -2 25 0 6 3 1 5 -13 5 -14 0 -19 -2 -12 -5z"/>
<path d="M9521 5574 c0 -11 3 -14 6 -6 3 7 2 16 -1 19 -3 4 -6 -2 -5 -13z"/>
<path d="M10995 5560 c10 -11 20 -20 23 -20 3 0 -3 9 -13 20 -10 11 -20 20
-23 20 -3 0 3 -9 13 -20z"/>
<path d="M8553 5475 c0 -33 2 -45 4 -27 2 18 2 45 0 60 -2 15 -4 0 -4 -33z"/>
<path d="M9413 5485 c0 -22 2 -30 4 -17 2 12 2 30 0 40 -3 9 -5 -1 -4 -23z"/>
<path d="M10341 5504 c0 -11 3 -14 6 -6 3 7 2 16 -1 19 -3 4 -6 -2 -5 -13z"/>
<path d="M10655 5509 c-4 -6 -5 -12 -2 -15 2 -3 7 2 10 11 7 17 1 20 -8 4z"/>
<path d="M8673 5460 c0 -30 2 -43 4 -27 2 15 2 39 0 55 -2 15 -4 2 -4 -28z"/>
<path d="M9811 5434 c0 -11 3 -14 6 -6 3 7 2 16 -1 19 -3 4 -6 -2 -5 -13z"/>
<path d="M10232 5238 l-2 -218 59 0 c33 0 62 3 64 8 3 4 -21 5 -54 4 l-59 -4
-3 214 -2 213 -3 -217z"/>
<path d="M9411 5424 c0 -11 3 -14 6 -6 3 7 2 16 -1 19 -3 4 -6 -2 -5 -13z"/>
<path d="M10502 5400 c0 -19 2 -27 5 -17 2 9 2 25 0 35 -3 9 -5 1 -5 -18z"/>
<path d="M10648 5403 c7 -3 16 -2 19 1 4 3 -2 6 -13 5 -11 0 -14 -3 -6 -6z"/>
<path d="M10698 5403 c12 -2 30 -2 40 0 9 3 -1 5 -23 4 -22 0 -30 -2 -17 -4z"/>
<path d="M10888 5403 c7 -3 16 -2 19 1 4 3 -2 6 -13 5 -11 0 -14 -3 -6 -6z"/>
<path d="M10351 5374 c0 -11 3 -14 6 -6 3 7 2 16 -1 19 -3 4 -6 -2 -5 -13z"/>
<path d="M10502 5335 c0 -16 2 -22 5 -12 2 9 2 23 0 30 -3 6 -5 -1 -5 -18z"/>
<path d="M8580 5296 c0 -11 30 -66 36 -66 2 0 -3 15 -12 33 -19 36 -24 44 -24
33z"/>
<path d="M9310 5215 c-24 -25 -42 -45 -39 -45 3 0 25 20 49 45 24 25 42 45 39
45 -3 0 -25 -20 -49 -45z"/>
<path d="M8775 5210 c21 -22 41 -40 44 -40 3 0 -13 18 -34 40 -21 22 -41 40
-44 40 -3 0 13 -18 34 -40z"/>
<path d="M8450 5216 c0 -2 8 -10 18 -17 15 -13 16 -12 3 4 -13 16 -21 21 -21
13z"/>
<path d="M9449 5193 c-13 -16 -12 -17 4 -4 16 13 21 21 13 21 -2 0 -10 -8 -17
-17z"/>
<path d="M8675 5150 c21 -22 41 -40 44 -40 3 0 -13 18 -34 40 -21 22 -41 40
-44 40 -3 0 13 -18 34 -40z"/>
<path d="M10550 5170 c6 -11 13 -20 16 -20 2 0 0 9 -6 20 -6 11 -13 20 -16 20
-2 0 0 -9 6 -20z"/>
<path d="M10700 5176 c0 -2 8 -10 18 -17 15 -13 16 -12 3 4 -13 16 -21 21 -21
13z"/>
<path d="M9234 5154 c-18 -14 -18 -15 4 -4 12 6 22 13 22 15 0 8 -5 6 -26 -11z"/>
<path d="M9404 5138 l-19 -23 23 19 c21 18 27 26 19 26 -2 0 -12 -10 -23 -22z"/>
<path d="M9165 5130 c-13 -6 -15 -9 -5 -9 8 0 22 4 30 9 18 12 2 12 -25 0z"/>
<path d="M11120 5136 c0 -2 8 -10 18 -17 15 -13 16 -12 3 4 -13 16 -21 21 -21
13z"/>
<path d="M10580 5126 c0 -2 8 -10 18 -17 15 -13 16 -12 3 4 -13 16 -21 21 -21
13z"/>
<path d="M10828 5113 c7 -3 16 -2 19 1 4 3 -2 6 -13 5 -11 0 -14 -3 -6 -6z"/>
<path d="M8270 5094 c0 -17 40 -64 53 -63 8 0 7 3 -1 6 -8 3 -22 19 -33 37
-10 17 -19 26 -19 20z"/>
<path d="M11129 5083 c-13 -16 -12 -17 4 -4 16 13 21 21 13 21 -2 0 -10 -8
-17 -17z"/>
<path d="M8451 5050 c-13 -11 -19 -20 -14 -20 6 0 18 9 28 20 23 25 17 25 -14
0z"/>
<path d="M8797 5059 c7 -7 15 -10 18 -7 3 3 -2 9 -12 12 -14 6 -15 5 -6 -5z"/>
<path d="M8898 5023 c7 -3 16 -2 19 1 4 3 -2 6 -13 5 -11 0 -14 -3 -6 -6z"/>
<path d="M8948 5013 c6 -2 18 -2 25 0 6 3 1 5 -13 5 -14 0 -19 -2 -12 -5z"/>
<path d="M10798 5013 c6 -2 18 -2 25 0 6 3 1 5 -13 5 -14 0 -19 -2 -12 -5z"/>
<path d="M10933 5013 c9 -2 25 -2 35 0 9 3 1 5 -18 5 -19 0 -27 -2 -17 -5z"/>
</g>
</svg>
